<svg xmlns="http://www.w3.org/2000/svg" width="417.9" height="454.2"><path d="M69.6 454.2C31.3 454.2 0 422.8 0 384.5V285c0-38.3 31.3-69.6 69.6-69.6s69.6 31.3 69.6 69.6v99.6c.1 38.2-31.3 69.6-69.6 69.6z" fill="#f16745"/><path d="M208.9 452.4c-38.3 0-69.6-31.3-69.6-69.6V69.6c0-38.3 31.3-69.6 69.6-69.6s69.6 31.3 69.6 69.6v313.1c.1 38.4-31.3 69.7-69.6 69.7z" fill="#4cc3d9"/><path d="M348.2 452.4c-38.3 0-69.6-31.3-69.6-69.6V185.1c0-38.3 31.3-69.6 69.6-69.6s69.6 31.3 69.6 69.6v197.6c.1 38.4-31.3 69.7-69.6 69.7z" fill="#ffc65d"/></svg>