<svg xmlns="http://www.w3.org/2000/svg" width="16" height="16"><path d="M11.8 14.6c-.6 0-1.2-.3-1.6-.7-.7-.9-.6-2.2.3-2.9.7-.6 1.2-1.4 1.3-2.4.3-2.1-1.1-4.1-3.2-4.4C7.4 4 6.7 3 6.8 1.8 7 .7 8.1-.1 9.2.1c2.1.3 4 1.4 5.2 3.2 1.3 1.7 1.8 3.8 1.5 5.9-.3 1.9-1.3 3.7-2.8 4.9-.4.4-.8.5-1.3.5z" fill="#9e64bc"/><path d="M8 16h-.6c-2.1-.2-4.1-1.1-5.5-2.7-1.3-1.5-2-3.4-2-5.3 0-1.1 1-2.1 2.1-2.1s2.1 1 2.1 2.1c0 .9.3 1.8.9 2.6 1.4 1.6 3.8 1.8 5.4.4.9-.8 2.2-.7 2.9.2.8.9.7 2.2-.2 2.9C11.8 15.3 9.9 16 8 16z" fill="#efc078"/><path d="M2.1 10.1C.9 10.1 0 9.2 0 8c0-2.1.8-4.1 2.3-5.7C3.8.9 5.8 0 8 0c1.9 0 3.8.7 5.3 2 .9.8.9 2.1.2 2.9-.8.9-2.1.9-2.9.2-.8-.6-1.7-.9-2.6-.9-1 0-2 .4-2.7 1.1C4.5 6 4.2 7 4.2 8c0 1.2-1 2.1-2.1 2.1z" fill="#87c6d8"/></svg>