<?xml version="1.0" encoding="utf-8"?>
<!-- Generator: Adobe Illustrator 27.3.1, SVG Export Plug-In . SVG Version: 6.00 Build 0)  -->
<svg version="1.1" id="Layer_1" xmlns="http://www.w3.org/2000/svg" xmlns:xlink="http://www.w3.org/1999/xlink" x="0px" y="0px"
	 viewBox="0 0 460.1 100.2" style="enable-background:new 0 0 460.1 100.2;" xml:space="preserve">
<style type="text/css">
	.st0{fill:#9965AA;}
	.st1{fill:#EFBF78;}
	.st2{fill:#88C6D7;}
	.st3{fill:#6F52A2;}
	.st4{fill:#2EBFCA;}
	.st5{fill:#F99D32;}
	.st6{fill:#F06846;}
	.st7{fill:#4DC3D9;}
	.st8{fill:#FEC760;}
	.st9{fill:#8851A0;}
	.st10{fill:#FFD230;}
	.st11{fill:#6EC9C7;}
</style>
<path class="st0" d="M205.4,91.2c-3.8,0-7.5-1.9-10-4.4c-4.4-5.6-3.8-13.7,1.9-18.1c4.4-3.8,7.5-8.7,8.1-15
	c1.9-13.1-6.9-25.6-20-27.5c-7.5-1.3-11.9-7.5-11.2-15c1.2-6.9,8.1-11.9,15-10.6c13.1,1.9,25,8.8,32.5,20
	c8.1,10.6,11.2,23.8,9.4,36.9c-1.9,11.9-8.1,23.1-17.5,30.6C211,90.6,208.5,91.2,205.4,91.2z"/>
<path class="st1" d="M181.6,100h-3.8c-13.1-1.2-25.6-6.9-34.4-16.9c-8-9.3-12.4-21.2-12.4-33.1c0-6.9,6.2-13.1,13.1-13.1
	s13.1,6.2,13.1,13.1c0,5.6,1.9,11.2,5.6,16.2c8.8,10,23.8,11.2,33.7,2.5c5.6-5,13.8-4.4,18.1,1.2c5,5.6,4.4,13.8-1.2,18.1
	C205.4,95.6,193.5,100,181.6,100L181.6,100z"/>
<path class="st2" d="M144.7,63.1c-7.5,0-13.1-5.6-13.1-13.1c0-13.1,5-25.6,14.4-35.6C155.4,5.6,167.9,0,181.6,0
	c11.9,0,23.8,4.4,33.1,12.5c5.6,5,5.6,13.1,1.2,18.1c-5,5.6-13.1,5.6-18.1,1.2c-5-3.8-10.6-5.6-16.2-5.6c-6.2,0-12.5,2.5-16.9,6.9
	c-5,4.4-6.9,10.6-6.9,16.9C157.9,57.5,151.6,63.1,144.7,63.1L144.7,63.1z"/>
<path class="st3" d="M0,17.4C0,7.7,7.6,0,17.4,0h56.9C84,0,91.7,7.7,91.7,17.4S84,34.8,74.3,34.8H17.4C7.6,34.8,0,27.1,0,17.4z"/>
<path class="st4" d="M111.1,50c0-8.3-6.9-15.3-15.3-15.3H72.2c-9,0-16,6.9-16,15.3s6.9,15.3,15.3,15.3h23.6
	C104.2,65.3,111.1,58.4,111.1,50z"/>
<path class="st5" d="M22.2,82.7c0-9.7,7.6-17.4,17.4-17.4h45.1c9.7,0,17.4,7.6,17.4,17.4S94.4,100,84.7,100H39.6
	C29.9,100,22.2,92.4,22.2,82.7z"/>
<path class="st6" d="M267.3,100.2c-8.4,0-15.3-6.9-15.3-15.3V63c0-8.4,6.9-15.3,15.3-15.3s15.3,6.9,15.3,15.3v21.9
	C282.7,93.3,275.8,100.2,267.3,100.2z"/>
<path class="st7" d="M298,99.8c-8.4,0-15.3-6.9-15.3-15.3v-69c0-8.4,6.9-15.3,15.3-15.3s15.3,6.9,15.3,15.3v68.9
	C313.4,92.9,306.4,99.8,298,99.8z"/>
<path class="st8" d="M328.7,99.8c-8.4,0-15.3-6.9-15.3-15.3V41c0-8.4,6.9-15.3,15.3-15.3S344,32.6,344,41v43.5
	C344,92.9,337.1,99.8,328.7,99.8z"/>
<path class="st9" d="M424.5,48.7c-2,0-3.9-0.8-5.3-2.5c-2.4-2.9-2-7.3,0.9-9.7c2.4-2,4-4.8,4.4-7.9c1.1-6.9-3.7-13.5-10.7-14.5
	c-3.8-0.6-6.4-4.1-5.8-7.9s4.1-6.4,7.9-5.8c7,1.1,13.2,4.8,17.4,10.5c4.2,5.7,6,12.7,4.9,19.8c-1,6.4-4.3,12.3-9.3,16.4
	C427.7,48.2,426.1,48.7,424.5,48.7z"/>
<path class="st10" d="M412,53.3c-0.6,0-1.3,0-1.9-0.1c-7.1-0.5-13.6-3.7-18.2-9.1c-4.3-4.9-6.6-11.2-6.5-17.7c0-3.8,3.2-6.9,7-6.8
	c3.8,0,6.9,3.2,6.8,7c0,3.1,1.1,6.1,3.1,8.5c4.6,5.3,12.7,5.9,18.1,1.3c2.9-2.5,7.3-2.2,9.8,0.7s2.2,7.3-0.7,9.8
	C424.5,51.1,418.4,53.3,412,53.3z"/>
<path class="st11" d="M392.2,33.7c-3.8,0-6.9-3.1-6.9-6.9c0-7.1,2.7-13.8,7.7-18.9c5-5,11.7-7.8,18.8-7.8h0.1
	c6.5,0,12.7,2.3,17.6,6.6c2.9,2.5,3.2,6.9,0.6,9.8c-2.5,2.9-6.9,3.2-9.8,0.6c-2.3-2.1-5.3-3.2-8.5-3.2c-3.4,0-6.6,1.4-9,3.8
	c-2.4,2.4-3.7,5.6-3.7,9.1C399.1,30.6,396,33.7,392.2,33.7L392.2,33.7z"/>
<path class="st11" d="M431.7,53.3h-19.9l0,0c-4.6,0-8.4,3.8-8.4,8.4s3.8,8.4,8.4,8.4l0,0h20c6.3,0,11.5,5.2,11.5,11.5v10
	c0,4.7,3.8,8.4,8.4,8.4s8.4-3.8,8.4-8.4v-10C460.1,66.1,447.4,53.3,431.7,53.3z"/>
<path class="st9" d="M391.9,53.3h20l0,0c4.6,0,8.4,3.8,8.4,8.4s-3.8,8.4-8.4,8.4l0,0h-20c-6.3,0-11.5,5.2-11.5,11.5v10
	c0,4.7-3.8,8.4-8.4,8.4s-8.4-3.8-8.4-8.4v-10C363.5,66.1,376.2,53.3,391.9,53.3z"/>
</svg>
