<svg version="1.1" id="Layer_1" xmlns="http://www.w3.org/2000/svg" x="0" y="0" width="673" height="552.8" xml:space="preserve"><style>.st1{fill:#1c1e39}</style><path d="M290.3 365.4c-34.1 17.2-76.1 3.4-93.3-30.7L78.8 100.8c-17.2-34.1-3.4-76.1 30.7-93.3 34.1-17.2 76.1-3.4 93.3 30.7L321 272c17.2 34.1 3.4 76.1-30.7 93.4z" fill="#f99d1e"/><path class="st1" d="M113.5 435.8c1.8 1.9 2.7 4.3 2.7 7.3 0 1-.2 2.2-.7 3.8l-25.1 67.6c-.7 2-1.8 3.5-3.5 4.7-1.7 1.1-3.5 1.7-5.5 1.7l-1.3-.2c-3.7-.2-6.5-2.3-8.4-6.2l-13.9-40.4-13.3 40.4c-1.9 3.9-4.7 6-8.4 6.2l-1.3.2c-2 0-3.8-.6-5.5-1.7-1.7-1.1-2.9-2.7-3.5-4.7L.7 446.8c-.4-1.2-.7-2.5-.7-3.8 0-2.7.9-5.1 2.7-7.1 1.8-2 4.2-3 7.1-3 2.2 0 4.1.5 5.7 1.6 1.6 1 2.7 2.6 3.4 4.7l17.7 48.1 13-35.1c1.7-4 4.8-6.1 9-6.1 2.3 0 4.1.5 5.3 1.5 1.3 1 2.3 2.5 3.2 4.6l12.6 34.3 17.6-47.3c.7-2.1 1.8-3.6 3.4-4.7 1.6-1 3.7-1.6 6.1-1.6 2.7 0 4.9.9 6.7 2.9zM196.7 410.8c5 3.3 9.1 7.8 12.1 13.5 3.1 5.6 4.6 11.8 4.6 18.5 0 6.6-1.5 12.7-4.6 18.4-3.1 5.7-7.1 10.2-12.1 13.5-5 3.3-10.3 5-15.9 5h-28.6v31c0 3-.9 5.4-2.6 7.2-1.8 1.9-4 2.8-6.9 2.8-2.7 0-5-1-6.7-2.9-1.8-1.9-2.6-4.3-2.6-7.1v-94.8c0-2.8 1-5.2 2.9-7.1 1.9-1.9 4.3-2.9 7.1-2.9h37.4c5.6-.1 10.9 1.6 15.9 4.9zm-9.7 47.5c2-1.7 3.7-4 4.9-6.8 1.3-2.8 1.9-5.7 1.9-8.8 0-3.1-.6-6-1.9-8.8-1.3-2.8-2.9-5-4.9-6.7-2-1.7-4.1-2.5-6.2-2.5h-28.6V461h28.6c2.1-.1 4.2-.9 6.2-2.7zM284.6 434c2.2 1.9 3.4 4 3.4 6.6 0 3.4-.9 5.9-2.6 7.6-1.8 1.7-3.8 2.5-6.2 2.5-1.6 0-3.5-.4-5.6-1.1-.3-.1-1.1-.3-2.2-.7-1.1-.3-2.4-.5-3.7-.5-2.8 0-5.6.9-8.2 2.6-2.6 1.8-4.8 4.4-6.5 8-1.7 3.6-2.5 7.8-2.5 12.7v38.9c0 2.8-.9 5.2-2.8 7.1-1.9 1.9-4.2 2.9-7.1 2.9-2.8 0-5.2-1-7.1-2.9-1.9-1.9-2.8-4.3-2.8-7.1v-67.8c0-2.8.9-5.2 2.8-7.1 1.9-1.9 4.2-2.9 7.1-2.9 2.8 0 5.2 1 7.1 2.9 1.9 1.9 2.8 4.3 2.8 7.1v2.1c2.5-4.5 6.1-7.9 10.8-10.3 4.7-2.4 9.7-3.5 15.1-3.5 3.2.1 6 1.1 8.2 2.9zM376.8 500.4c-3.9 6.9-9.3 12.3-16.2 16.2-6.8 3.8-14.4 5.7-22.6 5.7-8.3 0-15.9-1.9-22.6-5.7-6.8-3.8-12.1-9.2-16.1-16.2-3.9-6.9-5.9-14.8-5.9-23.5 0-8.8 2-16.6 5.9-23.5 3.9-6.9 9.3-12.4 16.1-16.2 6.8-3.9 14.3-5.8 22.6-5.8 8.2 0 15.7 1.9 22.6 5.8 6.8 3.9 12.2 9.3 16.2 16.2 3.9 6.9 5.9 14.8 5.9 23.5s-2 16.6-5.9 23.5zm-17.2-37.9c-2.2-4.2-5.3-7.5-9-9.8-3.8-2.3-8-3.4-12.6-3.4s-8.8 1.1-12.6 3.4c-3.8 2.3-6.8 5.6-9 9.8-2.2 4.2-3.4 9-3.4 14.4s1.1 10.1 3.4 14.3c2.2 4.2 5.3 7.4 9 9.7 3.8 2.3 8 3.4 12.6 3.4s8.8-1.1 12.6-3.4c3.8-2.3 6.8-5.5 9-9.7 2.2-4.2 3.4-8.9 3.4-14.3s-1.1-10.2-3.4-14.4zM387.8 550.2c-1.7-1.8-2.6-3.9-2.6-6.6v-1.8c0-4.4 2.8-7.4 8.4-9 3.5-1.1 5.7-2.9 6.6-5.5.9-2.6 1.4-6.2 1.4-10.7v-73.7c0-2.8.9-5.2 2.8-7.1 1.9-1.9 4.2-2.9 7.1-2.9 2.8 0 5.2 1 7.1 2.9 1.9 1.9 2.8 4.3 2.8 7.1v79.4c0 6.1-1.2 11.5-3.5 16.1-2.4 4.6-5.6 8.1-9.7 10.7-4.1 2.5-8.7 3.8-13.7 3.8-2.8-.1-5-.9-6.7-2.7zm15.4-129.8c-1.5-1.2-2.3-3.3-2.3-6.4v-3.1c0-3.1.8-5.2 2.5-6.4 1.6-1.2 4.3-1.8 7.9-1.8 3.8 0 6.5.6 8 1.8 1.5 1.2 2.3 3.3 2.3 6.4v3.1c0 3.2-.8 5.3-2.4 6.5-1.6 1.1-4.3 1.7-8.1 1.7s-6.4-.6-7.9-1.8zM519.9 481.1c-2 1.6-4.3 2.5-6.9 2.5h-54.2c1.3 6.5 4.3 11.5 9 15.2 4.7 3.7 10 5.5 15.9 5.5 4.5 0 8-.4 10.5-1.2 2.5-.8 4.5-1.7 6-2.6 1.5-.9 2.5-1.6 3-1.9 2-1 3.8-1.5 5.6-1.5 2.3 0 4.3.8 5.9 2.5s2.5 3.6 2.5 5.7c0 3-1.5 5.6-4.6 8-3.1 2.5-7.2 4.7-12.3 6.4-5.1 1.7-10.3 2.6-15.6 2.6-9.2 0-17.2-1.9-24-5.7-6.8-3.8-12.1-9.1-15.8-15.8-3.7-6.7-5.6-14.3-5.6-22.7 0-9.4 2-17.7 5.9-24.8 3.9-7.1 9.1-12.6 15.6-16.3 6.5-3.8 13.3-5.7 20.7-5.7 7.2 0 14 2 20.4 5.9 6.4 3.9 11.5 9.2 15.3 15.9 3.8 6.7 5.7 13.9 5.7 21.7 0 2.6-1.1 4.7-3 6.3zM459 467.2h43V466c-.4-4.6-2.7-8.5-6.7-11.8-4-3.3-8.6-4.9-13.8-4.9-12.7 0-20.2 6-22.5 17.9zM600.1 435.6c5.7 2.9 8.5 6.8 8.5 11.6 0 2.4-.7 4.5-2.1 6.3-1.4 1.8-3.3 2.7-5.6 2.7-1.8 0-3.2-.2-4.3-.7-1.1-.5-2.2-1.1-3.2-2-1-.8-2.1-1.5-3-2.1-1.1-.5-2.7-1-4.8-1.5-2.1-.4-3.9-.7-5.2-.7-8.2 0-14.6 2.5-19.3 7.6-4.7 5.1-7 11.7-7 19.9 0 7.9 2.4 14.4 7.1 19.6 4.7 5.2 10.7 7.8 18.1 7.8 5.4 0 9.4-.7 12-2 .7-.3 1.6-.9 2.7-1.7 1.1-.8 2.2-1.4 3.2-1.9 1-.4 2.2-.7 3.6-.7 2.7 0 4.9.9 6.5 2.6 1.6 1.8 2.4 4 2.4 6.7 0 2.6-1.5 5.1-4.6 7.4-3.1 2.3-7.1 4.1-12.1 5.5-5 1.4-10.4 2.1-16.1 2.1-8.4 0-15.8-2-22.2-5.9-6.4-3.9-11.4-9.4-14.9-16.3s-5.3-14.7-5.3-23.2c0-8.9 1.8-16.7 5.5-23.6 3.7-6.9 8.8-12.3 15.3-16.2 6.6-3.9 14-5.8 22.3-5.8 9.3.1 16.8 1.6 22.5 4.5zM670.4 504.3c1.3 1.5 1.9 3.4 1.9 5.8 0 3-1.6 5.4-4.8 7.5-3.2 2-6.9 3-10.9 3-6.8 0-12.5-1.4-17.1-4.3-4.7-2.9-7-9.1-7-18.5v-45.3H625c-2.6 0-4.8-.9-6.6-2.6-1.8-1.7-2.6-3.9-2.6-6.6 0-2.5.9-4.6 2.6-6.3 1.7-1.7 3.9-2.5 6.6-2.5h7.5V424c0-2.8 1-5.2 2.9-7.1 1.9-1.9 4.3-2.9 7.1-2.9 2.7 0 5 1 6.9 2.9 1.9 1.9 2.8 4.3 2.8 7.1v10.5h11.7c2.6 0 4.8.9 6.6 2.6 1.7 1.8 2.6 3.9 2.6 6.6 0 2.5-.9 4.6-2.6 6.3-1.8 1.7-3.9 2.5-6.6 2.5h-11.7V497c0 2.3.6 4 1.8 5 1.2 1 2.8 1.6 4.9 1.6.9 0 2.1-.2 3.6-.7 1.3-.5 2.6-.8 3.8-.8 1.5 0 2.8.8 4.1 2.2z"/><path d="M445.6 365.4c-34.1 17.2-76.1 3.4-93.3-30.7L234.1 100.8c-17.2-34.1-3.4-76.1 30.7-93.3 34.1-17.2 76.1-3.4 93.3 30.7L476.3 272c17.2 34.1 3.4 76.1-30.7 93.4z" fill="#c01e66"/><path d="M382.7 365.4c34.1 17.2 76.1 3.4 93.3-30.7l118.1-233.9c17.2-34.1 3.4-76.1-30.7-93.3-34-17.3-76-3.5-93.3 30.6L352 272c-17.2 34.1-3.4 76.1 30.7 93.4z" fill="#4c2d7b"/></svg>