<svg xmlns="http://www.w3.org/2000/svg" width="300" height="278" viewBox="50 32 300 278"><path fill="#5F6CB3" d="M162.5 210c-19.299 0-35-15.701-35-35s15.701-35 35-35 35 15.701 35 35-15.701 35-35 35zm0-50c-8.271 0-15 6.729-15 15s6.729 15 15 15 15-6.729 15-15-6.729-15-15-15zM231.25 210c-15.854 0-28.75-12.897-28.75-28.75s12.896-28.75 28.75-28.75S260 165.397 260 181.25 247.104 210 231.25 210zm0-37.5c-4.825 0-8.75 3.925-8.75 8.75s3.925 8.75 8.75 8.75 8.75-3.925 8.75-8.75-3.925-8.75-8.75-8.75z"/><path fill="#F7912A" d="M209.115 260.423c0 5.417-4.391 9.808-9.808 9.808s-9.808-4.391-9.808-9.808v-19.614c0-5.418 4.391-9.809 9.808-9.809s9.808 4.391 9.808 9.809v19.614zM234.115 260.423c0 5.417-4.391 9.808-9.809 9.808-5.416 0-9.808-4.391-9.808-9.808v-19.614c0-5.418 4.392-9.809 9.808-9.809a9.808 9.808 0 019.809 9.809v19.614zM259.115 260.423c0 5.417-4.391 9.808-9.809 9.808-5.416 0-9.808-4.391-9.808-9.808v-19.614c0-5.418 4.392-9.809 9.808-9.809a9.808 9.808 0 019.809 9.809v19.614zM184.115 260.423c0 5.417-4.391 9.808-9.808 9.808s-9.808-4.391-9.808-9.808v-19.614c0-5.418 4.391-9.809 9.808-9.809s9.808 4.391 9.808 9.809v19.614zM159.115 260.423c0 5.417-4.391 9.808-9.808 9.808s-9.808-4.391-9.808-9.808v-19.614c0-5.418 4.391-9.809 9.808-9.809s9.808 4.391 9.808 9.809v19.614z"/><path fill="#334" d="M320 180h-10v-60c0-16.542-13.458-30-30-30h-70.384V67.757C215.229 64.394 219 58.27 219 51.25 219 40.619 210.381 32 199.75 32s-19.25 8.619-19.25 19.25c0 7.068 3.821 13.229 9.499 16.577V90H120c-16.542 0-30 13.458-30 30v52.5H80c-16.542 0-30 13.458-30 30V225c0 16.542 13.458 30 30 30h10v25c0 16.542 13.458 30 30 30h160c16.542 0 30-13.458 30-30v-17.5h10c16.542 0 30-13.458 30-30V210c0-16.542-13.458-30-30-30zM80 235c-5.514 0-10-4.486-10-10v-22.5c0-5.514 4.486-10 10-10h10V235H80zm210 45c0 5.514-4.486 10-10 10H120c-5.514 0-10-4.486-10-10V120c0-5.514 4.486-10 10-10h160c5.514 0 10 4.486 10 10v160zm40-47.5c0 5.514-4.486 10-10 10h-10V200h10c5.514 0 10 4.486 10 10v22.5z"/></svg>