<svg xmlns="http://www.w3.org/2000/svg" width="512" height="512"><path d="M454 93L369 8l-.5-.5c-.5-.5-1.1-1.1-1.7-1.5-.2-.2-.5-.4-.7-.6l-.4-.3c-.3-.2-.6-.5-.9-.7l-.9-.6-.4-.3c-.3-.2-.6-.3-.9-.5s-.7-.3-1-.5l-.6-.1c-.3-.1-.6-.3-.9-.4-.3-.1-.6-.2-1-.4l-.4-.2c-.3-.1-.7-.2-1-.4-.3-.1-.6-.2-1-.3l-.5-.1c-.4-.1-.7-.2-1.1-.3s-.8-.1-1.2-.2l-.5-.1c-.3 0-.6-.1-.9-.1-1.7-.2-3.5-.2-5.2 0-.3 0-.6.1-.9.1l-.4.3c-.4.1-.8.1-1.2.2-.4.1-.7.2-1.1.3l-.4.1c-.3.1-.7.2-1 .3-.4.1-.7.2-1 .4l-.4.2c-.3.1-.6.2-.9.4-.3.1-.6.3-.9.4l-.4.2c-.3.2-.7.3-1 .5s-.6.3-.8.5l-.4.3-.9.6c-.3.2-.6.4-.9.7l-.4.3c-.3.2-.5.4-.7.6-.6.5-1.2 1-1.8 1.6l-.3.2-.4-.1L246 93c-10.3 10.3-10.3 27 0 37.2 5 5 11.6 7.7 18.6 7.7s13.6-2.7 18.6-7.7l40.4-40.4V325c0 14.5 11.8 26.3 26.3 26.3s26.3-11.8 26.3-26.3V89.9l40.4 40.4c5 5 11.6 7.7 18.6 7.7s13.6-2.7 18.6-7.7c10.4-10.3 10.4-27 .2-37.3z" fill="#a5aeb5"/><path d="M238.7 381.7l-40.4 40.4V187c0-14.5-11.8-26.3-26.3-26.3s-26.3 11.8-26.3 26.3v235.1l-40.4-40.4c-5-5-11.6-7.7-18.6-7.7S73 376.7 68 381.7c-10.3 10.3-10.3 27 0 37.2l85.3 85.3.1.1c.6.5 1.2 1.1 1.8 1.6.2.2.5.4.7.6l.4.3c.3.2.6.5.9.7l.9.6.4.2c.3.2.6.3.9.5.3.2.7.3 1 .5l.4.2c.3.1.6.3.9.4.3.1.7.3 1 .4l.4.1c.3.1.7.2 1 .4.3.1.6.2 1 .3l.4.1c.4.1.7.2 1.1.3.4.1.8.1 1.2.2l.5.1c.3 0 .6.1.9.1.9.1 1.7.1 2.6.1.9 0 1.7 0 2.6-.1.3 0 .6-.1.9-.1l.5-.1c.4-.1.8-.1 1.2-.2s.7-.2 1.1-.3l.5-.1c.3-.1.7-.2 1-.3.4-.1.7-.2 1-.4l.4-.2c.3-.1.6-.2 1-.4.3-.1.6-.3.9-.4l.4-.2c.3-.2.7-.3 1-.5s.6-.3.9-.5l.4-.2c.3-.2.6-.4 1-.6.3-.2.6-.4.9-.7l.4-.3c.2-.2.5-.4.7-.6.6-.5 1.2-1.1 1.8-1.6L276 419c10.3-10.3 10.3-27 0-37.2-10.3-10.4-27-10.4-37.3-.1z" fill="#607ae3"/></svg>