<svg version="1.1" id="Layer_1" xmlns="http://www.w3.org/2000/svg" x="0" y="0" width="100" height="100" style="enable-background:new 0 0 100 100" xml:space="preserve"><style>.st2{fill:#fff}</style><linearGradient id="Layer_1_00000052101218434943951080000012055706008614728090_" gradientUnits="userSpaceOnUse" x1="15.453" y1="84.547" x2="112.489" y2="-12.489" gradientTransform="matrix(1 0 0 -1 0 100)"><stop offset="0" style="stop-color:#a967aa"/><stop offset="1" style="stop-color:#602d91"/></linearGradient><path id="Layer_1_1_" style="opacity:.8;fill:url(#Layer_1_00000052101218434943951080000012055706008614728090_);enable-background:new" d="M0 0h100v100H0V0z"/><path d="M28.3 72.4c0 .8.6 1.4 1.4 1.4.2 0 .4-.1.6-.2 4-2 8.8-1.5 12.4 1.3h0c4.2 3.3 10.2 3.3 14.4 0h0c3.5-2.8 8.4-3.3 12.4-1.3.7.4 1.5.1 1.9-.6.1-.2.2-.4.2-.6v-28c0-12.1-9.7-22-21.7-22 0 0 0 0 0 0h0c-12 0-21.7 9.8-21.7 21.9 0 0 0 0 0 0v28.1z" style="fill:none;stroke:#fff;stroke-width:7;stroke-linecap:round;stroke-linejoin:round"/><ellipse class="st2" cx="42.7" cy="43.3" rx="4.9" ry="5"/><ellipse class="st2" cx="57.3" cy="43.3" rx="4.9" ry="5"/></svg>